<svg width="32" height="33" viewBox="0 0 32 33" fill="none" xmlns="http://www.w3.org/2000/svg">
<path d="M2.66669 27.1666H5.33335C6.06669 27.1666 6.66669 26.5666 6.66669 25.8333V13.8333C6.66669 13.1 6.06669 12.5 5.33335 12.5H2.66669V27.1666ZM29.1067 17.6733C29.2534 17.34 29.3334 16.98 29.3334 16.6066V15.1666C29.3334 13.7 28.1334 12.5 26.6667 12.5H19.3334L20.56 6.29996C20.6267 6.00663 20.5867 5.68663 20.4534 5.41996C20.1467 4.81996 19.76 4.27329 19.28 3.79329L18.6667 3.16663L10.12 11.7133C9.61335 12.22 9.33335 12.9 9.33335 13.6066V24.06C9.33335 25.7666 10.7334 27.1666 12.4534 27.1666H23.2667C24.2 27.1666 25.08 26.6733 25.56 25.8733L29.1067 17.6733Z" fill="#219653"/>
</svg>
